<svg width="106" height="119" viewBox="0 0 106 119" fill="none" xmlns="http://www.w3.org/2000/svg">
<path d="M1.04904e-05 46.592C1.04904e-05 40.0214 1.15201 33.92 3.45601 28.288C5.84534 22.5707 9.13068 17.6214 13.312 13.44C17.5787 9.17336 22.528 5.88802 28.16 3.58402C33.8773 1.19469 40.0213 2.28882e-05 46.592 2.28882e-05C53.1627 2.28882e-05 59.264 1.19469 64.896 3.58402C70.6133 5.88802 75.5627 9.17336 79.744 13.44C84.0107 17.6214 87.296 22.5707 89.6 28.288C91.9893 33.92 93.184 40.0214 93.184 46.592C93.184 53.0774 92.032 59.0934 89.728 64.64C87.5093 70.1867 84.352 75.0934 80.256 79.36C76.16 83.5414 71.3813 86.8267 65.92 89.216V89.984C70.016 89.984 73.472 90.4534 76.288 91.392C79.104 92.3307 81.6213 93.824 83.84 95.872C86.144 97.92 88.3627 100.565 90.496 103.808C93.1413 107.733 95.4453 110.763 97.408 112.896C99.456 115.115 102.144 116.693 105.472 117.632V118.4H99.456C96.128 118.4 93.44 117.888 91.392 116.864C89.344 115.84 87.6373 114.475 86.272 112.768C84.992 111.061 83.712 109.269 82.432 107.392C80.9813 105.088 79.36 102.827 77.568 100.608C75.776 98.4747 73.6 96.6827 71.04 95.232C68.5653 93.8667 65.3653 93.184 61.44 93.184H46.592C40.0213 93.184 33.8773 92.032 28.16 89.728C22.528 87.3387 17.5787 84.0534 13.312 79.872C9.13068 75.6054 5.84534 70.656 3.45601 65.024C1.15201 59.3067 1.04904e-05 53.1627 1.04904e-05 46.592ZM9.72801 46.592C9.72801 55.296 11.264 62.9334 14.336 69.504C17.408 75.9894 21.7173 81.0667 27.264 84.736C32.8107 88.32 39.2533 90.112 46.592 90.112C53.9307 90.112 60.3733 88.32 65.92 84.736C71.4667 81.0667 75.776 75.9467 78.848 69.376C81.92 62.8054 83.456 55.2107 83.456 46.592C83.456 37.9734 81.92 30.4214 78.848 23.936C75.776 17.3654 71.4667 12.2454 65.92 8.57603C60.3733 4.90669 53.9307 3.07202 46.592 3.07202C39.2533 3.07202 32.8107 4.90669 27.264 8.57603C21.8027 12.16 17.4933 17.2374 14.336 23.808C11.264 30.2934 9.72801 37.888 9.72801 46.592Z" fill="white"/>
</svg>
